<svg xmlns="http://www.w3.org/2000/svg" width="54" height="37" viewBox="0 0 54 37">
    <path fill="#49547D" d="M12.69 26.978c-4.816 0-8.554-5.29-8.554-10.377 0-5.495 3.738-9.561 8.554-9.561.774-.077 1.555.054 2.26.379-.512 1.468-.777 3.009-.783 4.562-.014 4.295 1.765 8.407 4.92 11.368 0 .087-.488.335-.592.714-1.964.468-3.753 1.48-5.155 2.915h-.65zm-3.634.81c1.14.53 2.375.827 3.634.875C10.47 30.885 9.234 33.882 9.248 37H0c.1-4.907 4.083-8.875 9.056-9.022v-.19zm26.552-3.681c-.163-.38-.296-.627-.502-.714 3.127-2.962 4.902-7.048 4.919-11.325-.033-1.559-.333-3.101-.887-4.562.748-.306 1.557-.436 2.364-.379 4.772 0 8.657 4.067 8.657 9.561 0 5.043-3.885 10.334-8.657 10.334h-.487c-1.513-1.422-3.377-2.427-5.407-2.915zm-3.763 1.685c6.08.279 10.877 5.203 10.917 11.208H11.577c.065-6.018 4.883-10.938 10.976-11.208v-.437c1.367.889 2.99 1.313 4.624 1.21 1.647.096 3.282-.328 4.668-1.21v.437zm13.395 2.186c4.913.174 8.795 4.172 8.76 9.022h-9.204c.058-3.08-1.084-6.064-3.19-8.337 1.251-.094 2.478-.39 3.634-.874v.19zm-18.063-3.186c-5.806 0-10.828-6.253-10.828-12.768C16.349 5.51 21.357 0 27.177 0c5.82 0 10.666 5.466 10.666 12.024 0 6.559-4.757 12.768-10.666 12.768z"/>
</svg>
