<svg xmlns="http://www.w3.org/2000/svg" width="112" height="103" viewBox="0 0 112 103">
    <g fill="none" fill-rule="evenodd">
        <g transform="translate(2 3) translate(0 13)">
            <path fill="#D8A280" fill-rule="nonzero" d="M73.008 55.92c-.005.288-.11.565-.3.783l-.045.033c-.093.051-.234.117-.411.195l-.078.033-.09.036-.402.171-.174.069-.123.051-.114.048h-.027l-.3.117h-.018l-1.431.582-.267.111c-.441.183-.9.375-1.347.576-.534.231-1.059.474-1.554.717-2.418 1.2-4.272 2.67-7.2 4.017-1.633.712-3.3 1.34-4.998 1.881l-.81.273c-.42.141-.837.282-1.245.426-.546.192-1.077.384-1.587.582.411-1.626 1.443-3.024 2.034-4.542 1.323-3.381.651-1.5 4.089-3.357 0 0 3.231-1.662 4.134-1.95.783-.226 1.587-.368 2.4-.423.135 0 6.393-2.1 7.371-2.28.344-.06.698-.044 1.035.048l.072.021c.492.123.927.408 1.236.81.151.3.204.64.15.972z"/>
            <path fill="#E4B3A5" fill-rule="nonzero" d="M72.678 56.715l-.045.033c-.09.048-.216.108-.381.183l-.078.033-.09.036-.402.171-.174.069-.123.051-.114.048h-.027l-.3.117h-.018l-1.431.582-.3.12c-.021-.3.39-.816.822-1.236.207-.206.43-.395.669-.564.24-.163.503-.29.78-.378.262-.105.548-.134.825-.084.099.032.186.091.252.171.126.191.174.423.135.648z"/>
            <path fill="#C49466" fill-rule="nonzero" d="M73.008 55.92c-.005.288-.11.565-.3.783l-.045.033c-.093.051-.234.117-.411.195l-.078.033-.09.036-.402.171-.174.069-.123.051-.114.048h-.027l-.3.117h-.018l-1.431.582-.267.111c-.441.183-.9.375-1.347.576-.534.231-1.059.474-1.554.717-2.418 1.2-4.272 2.67-7.2 4.017-1.633.712-3.3 1.34-4.998 1.881l-.81.273c.483-1.359 1.323-2.583 1.836-3.9 1.326-3.384.651-1.5 4.089-3.36 0 0 3.231-1.662 4.134-1.95.782-.227 1.587-.368 2.4-.42.102 0 3.666-1.182 5.844-1.851.492.123.927.408 1.236.81.153.302.205.644.15.978z"/>
            <path fill="#D8A280" fill-rule="nonzero" d="M75.636 55.647c-.005.288-.11.565-.3.783l-.045.033c-.093.051-.234.117-.411.195l-.078.033-.09.036c-.12.054-.255.108-.402.168l-.174.072-.123.051-.114.048h-.027l-.3.117h-.018l-1.446.603-.267.114c-.441.183-.9.375-1.347.573-.531.234-1.059.477-1.554.72-2.418 1.2-4.272 2.67-7.2 4.017-1.634.711-3.303 1.339-5.001 1.881-.696.234-1.386.465-2.055.699-.546.192-1.077.384-1.587.582.411-1.626 1.443-3.024 2.034-4.542 1.323-3.381.651-1.5 4.089-3.357 0 0 3.231-1.662 4.134-1.95.782-.228 1.587-.37 2.4-.423.135.015 6.393-2.1 7.371-2.28.344-.062.698-.046 1.035.048.52.115.983.409 1.308.831.153.291.212.622.168.948z"/>
            <path fill="#E4B3A5" fill-rule="nonzero" d="M75.306 56.442l-.048.03c-.087.051-.216.111-.381.186l-.078.033-.09.036c-.12.054-.255.108-.402.168l-.174.072-.123.051-.114.048h-.027l-.3.117h-.018l-1.443.603-.3.123c-.024-.3.387-.816.819-1.236.206-.207.43-.396.669-.564.241-.163.504-.29.78-.381.262-.103.548-.13.825-.081.099.031.186.09.252.171.126.182.18.404.153.624z"/>
            <path fill="#C49466" fill-rule="nonzero" d="M75.462 54.819c-.227-.438-.624-.763-1.098-.9-1.683.459-7.068 2.256-7.2 2.241-.813.055-1.617.197-2.4.423-.9.3-4.134 1.95-4.134 1.95-3.438 1.854-2.766-.024-4.089 3.36-.528 1.347-1.401 2.604-1.875 4.008.669-.234 1.359-.465 2.052-.699 1.698-.541 3.368-1.17 5.001-1.884 2.925-1.344 4.779-2.823 7.2-4.014 1.569-.774 3.564-1.569 4.911-2.1l.93-.387c.486-.21.762-.255.837-1.044.056-.324.008-.658-.135-.954z"/>
            <path fill="#D8A280" fill-rule="nonzero" d="M76.74 56.586c-.015.013-.03.024-.048.033-.12.066-.321.159-.582.267l-.402.168-.174.072-.126.06-.114.048h-.027c-.507.204-1.107.444-1.743.705l-.267.114c-.441.183-.9.375-1.347.573-.534.234-1.062.477-1.554.72-2.418 1.2-4.272 2.67-7.2 4.017-1.634.711-3.303 1.34-5.001 1.881-1.26.426-2.508.84-3.639 1.281.411-1.626 1.44-3.024 2.034-4.542 1.323-3.381.651-1.5 4.089-3.357 0 0 3.231-1.662 4.134-1.95.782-.228 1.587-.37 2.4-.423.132.015 6.393-2.1 7.371-2.28.978-.18 2.022.357 2.343.879.321.522.165 1.473-.147 1.734z"/>
            <path fill="#E4B3A5" fill-rule="nonzero" d="M76.71 56.586l-.045.03c-.117.066-.3.153-.555.258l-.402.168-.174.072-.126.072-.114.048h-.027c-.507.204-1.107.444-1.743.705l-.3.123c-.021-.3.39-.816.819-1.236.208-.207.432-.395.672-.564.241-.163.504-.29.78-.381.262-.103.548-.13.825-.081.324.102.42.414.39.786z"/>
            <path fill="#CACACA" fill-rule="nonzero" d="M76.794 57.12c-.375-.483-1.5-.9-2.424-.627-.924.273-7.5 1.011-7.647 1.011-.976.136-1.939.357-2.877.66-.525.192-1.827.165-2.814.108.04-.335.03-.673-.027-1.005-.054-.59-.26-1.157-.6-1.644-.294-.395-.7-.691-1.167-.849-.54-.234-3.9-.999-6.444-.834-2.616.171-7.119.933-9.015.711-1.896-.222-4.65-1.5-4.65-1.5l-.132-.081s-6.825-2.7-11.454-2.7c-3.864 0-9.279 1.881-10.965 2.502l-.099.036-.081.03-.075.03-.09.033-.174.066 5.049 10.881.3.672 1.863-.561s3.108-.384 5.004-.111c1.896.273 4.863.576 7.938 1.2 3.324.678 8.28 2.319 10.5 2.313 1.866 0 4.665-.081 7.5-1.104 3.234-1.167 4.677-1.881 7.821-2.562 3.204-.696 8.235-1.932 11.448-3.168.162-.06.318-.123.465-.183l1.281-.687h.024l.258-.138c.024-.027.399-.222.735-.408.144-.075.282-.15.384-.216.057-.029.109-.065.156-.108.312-.201.396-1.266.009-1.767z" style="mix-blend-mode:multiply"/>
            <path fill="#D8A280" fill-rule="nonzero" d="M76.806 59.181c-.042.081-1.23.684-1.275.732l-.258.138-1.305.699c-3.174 1.293-8.55 2.619-11.913 3.348-3.144.681-4.587 1.395-7.821 2.562-2.841 1.023-5.64 1.098-7.5 1.104-2.22 0-7.176-1.635-10.5-2.313-3.075-.627-6.045-.933-7.938-1.2-1.893-.267-5.004.111-5.004.111l-1.884.558-.3-.672-5.049-10.875.174-.066.09-.033.075-.03.081-.03.099-.036c1.686-.621 7.101-2.499 10.965-2.502 4.629 0 11.454 2.7 11.454 2.7s2.574 1.617 4.428 2.073c1.854.456 6.417.261 9.033.417 2.538.156 5.784 1.332 6.3 1.632.398.276.753.609 1.056.987 0 0 3.153.3 4.044-.018.938-.303 1.9-.524 2.877-.66.135 0 6.693-.72 7.647-1.011.954-.291 2.049.144 2.424.627s.291 1.563 0 1.758z"/>
            <path fill="#E4B3A5" fill-rule="nonzero" d="M76.809 59.169c-.135.165-1.176.639-1.278.744l-.258.138c-1.014.543-.315.165-1.305.699-.147.06-.3.123-.465.183 0-.504.864-1.518 1.296-1.881.525-.453 1.965-1.233 2.01.117z"/>
            <path fill="#CACACA" fill-rule="nonzero" d="M39.663 54.633s2.652.585 4.548.807c1.896.222 6.399-.54 9.015-.711 1.8-.114 3.681.069 5.058.063.465-.013.926.084 1.347.282.56.266 1.02.703 1.317 1.248.268.543.43 1.13.48 1.734.213 1.404-.195 2.061-1.185 2.433-1.332.498-5.787 1.419-7.557 1.974-1.971.615-2.253-1.038-4.41-.948-2.157.09-7.341.246-7.341.246l-3.6-4.575 2.328-2.553z" style="mix-blend-mode:multiply"/>
            <path fill="#D8A280" fill-rule="nonzero" d="M39.138 53.448s2.754 1.278 4.65 1.5c1.896.222 6.399-.54 9.015-.711 2.538-.165 5.904.6 6.444.834.466.158.873.454 1.167.849.34.487.546 1.053.6 1.644.213 1.404-.222 2.001-1.185 2.433-1.164.519-5.124 1.275-6.726 1.476-1.752.219-3.084-.54-5.241-.45-2.157.09-6.918.735-6.918.735l-5.076-5.151 3.27-3.159z"/>
            <path fill="#E4B3A5" fill-rule="nonzero" d="M55.008 56.22c.582-.882 4.377-.786 5.001-.276.487.379.78.955.798 1.572.063.744.093 1.998-1.698 2.322-1.024.165-2.067.185-3.096.057-1.161-.333-1.623-2.736-1.005-3.675z"/>
            <path fill="#49547D" fill-rule="nonzero" d="M0.033 73.719L20.643 68.586 16.011 50.25 0.033 54.21z"/>
            <path fill="#ACA8A2" fill-rule="nonzero" style="mix-blend-mode:multiply" d="M9.502 51.732H13.138000000000002V70.644H9.502z" transform="rotate(-14.17 11.32 61.188)"/>
            <path fill="#9C9892" fill-rule="nonzero" style="mix-blend-mode:multiply" d="M0.033 73.719L20.643 68.586 18.327 59.418 0.033 63.981z"/>
            <rect width="3.636" height="17.094" x="18.267" y="50.431" fill="#61D5DF" fill-rule="nonzero" rx=".648" transform="rotate(-14.17 20.085 58.978)"/>
            <path fill="#61D5DF" fill-rule="nonzero" d="M16.011 50.25L20.643 68.586 21.63 67.398 17.442 50.826z"/>
            <path fill="#ACA8A2" fill-rule="nonzero" d="M21.6 66.756c.01.046.04.085.08.11.04.025.087.033.133.022l1.752-.444c.091-.029.144-.124.12-.217-.024-.092-.116-.15-.21-.131l-1.749.444c-.094.025-.15.122-.126.216zM21.408 66.024c.025.095.12.153.216.132l1.749-.444c.088-.03.139-.123.116-.214-.022-.09-.11-.149-.203-.134l-1.749.444c-.046.011-.085.04-.11.081-.024.04-.03.09-.019.135zM21.231 65.286c.01.046.04.085.08.11.04.025.087.033.133.022l1.764-.432c.094-.025.15-.122.126-.216-.024-.096-.12-.155-.216-.132l-1.749.444c-.094.02-.155.11-.138.204zM21.045 64.56c.024.096.12.155.216.132l1.749-.441c.095-.026.15-.124.126-.219-.01-.046-.04-.085-.08-.11-.04-.025-.087-.033-.133-.022l-1.752.444c-.094.025-.15.122-.126.216zM20.862 63.828c.01.046.04.085.08.11.04.025.087.033.133.022l1.749-.441c.046-.012.085-.042.109-.083.024-.041.03-.09.017-.136-.024-.094-.118-.153-.213-.132l-1.749.444c-.046.011-.085.04-.109.081-.024.041-.03.09-.017.135zM20.676 63.096c.01.046.04.085.08.11.04.025.087.033.133.022l1.752-.441c.097-.025.155-.124.13-.22-.024-.097-.123-.156-.22-.131l-1.743.45c-.094.022-.153.116-.132.21zM20.49 62.364c.024.096.12.155.216.132l1.749-.441c.095-.026.15-.124.126-.219-.01-.046-.04-.085-.08-.11-.04-.024-.088-.03-.133-.019l-1.749.441c-.046.011-.085.04-.11.081-.024.04-.03.09-.019.135zM20.307 61.632c.01.046.04.085.08.11.04.025.087.033.133.022l1.752-.441c.095-.026.15-.124.126-.219-.011-.046-.04-.085-.081-.11-.04-.024-.09-.03-.135-.019l-1.749.441c-.094.025-.15.122-.126.216zM20.121 60.9c.024.096.12.155.216.132l1.749-.441c.095-.026.15-.124.126-.219-.01-.046-.04-.085-.08-.11-.04-.024-.088-.03-.133-.019l-1.752.441c-.093.026-.149.122-.126.216zM19.938 60.168c.01.046.04.085.08.11.04.025.087.033.133.022l1.749-.441c.088-.03.139-.123.116-.214-.022-.09-.11-.149-.203-.134l-1.749.441c-.094.025-.15.122-.126.216zM19.752 59.439c.024.094.119.152.213.129l1.752-.441c.091-.029.144-.124.12-.217-.024-.092-.116-.15-.21-.131l-1.749.441c-.095.026-.15.124-.126.219zM19.566 58.707c.011.046.04.085.081.11.04.024.09.03.135.019l1.749-.441c.088-.03.139-.123.116-.214-.022-.09-.11-.149-.203-.134l-1.752.441c-.095.026-.15.124-.126.219zM19.383 57.975c.01.046.04.085.08.11.04.024.088.03.133.019l1.752-.441c.094-.025.15-.122.126-.216-.024-.096-.12-.155-.216-.132l-1.749.441c-.095.026-.15.124-.126.219zM19.197 57.243c.011.046.04.085.081.11.04.024.09.03.135.019l1.749-.441c.088-.03.139-.123.116-.214-.022-.09-.11-.149-.203-.134l-1.752.441c-.095.026-.15.124-.126.219zM19.008 56.511c.024.094.118.153.213.132l1.749-.444c.047-.009.089-.036.115-.077.026-.04.035-.09.023-.136-.01-.046-.04-.085-.08-.11-.04-.025-.087-.033-.133-.022l-1.755.432c-.048.01-.09.04-.115.083-.026.043-.032.095-.017.142zM18.828 55.779c.024.094.118.153.213.132l1.752-.444c.091-.029.144-.124.12-.217-.024-.092-.116-.15-.21-.131l-1.749.441c-.095.026-.15.124-.126.219zM18.642 55.047c.024.096.12.155.216.132l1.749-.444c.088-.03.139-.123.116-.214-.022-.09-.11-.149-.203-.134l-1.752.444c-.094.025-.15.122-.126.216zM18.459 54.315c.01.046.04.085.08.11.04.025.087.033.133.022l1.749-.444c.046-.011.085-.04.11-.081.024-.04.03-.09.019-.135-.024-.096-.12-.155-.216-.132l-1.749.444c-.094.025-.15.122-.126.216zM18.273 53.586c.024.096.12.155.216.132l1.749-.432c.088-.03.139-.123.116-.214-.022-.09-.11-.149-.203-.134l-1.743.429c-.048.01-.09.039-.115.08-.025.042-.033.092-.02.139zM18.09 52.851c.01.046.04.085.08.11.04.025.087.033.133.022l1.749-.441c.097-.024.156-.122.132-.219-.024-.097-.122-.156-.219-.132l-1.749.444c-.046.011-.085.04-.109.081-.024.041-.03.09-.017.135zM17.904 52.119c.01.046.04.085.08.11.04.025.087.033.133.022l1.752-.441c.097-.025.155-.124.13-.22-.024-.097-.123-.156-.22-.131l-1.749.444c-.094.025-.15.122-.126.216zM17.718 51.387c.024.096.12.155.216.132l1.749-.441c.095-.026.15-.124.126-.219-.01-.046-.04-.085-.08-.11-.04-.024-.088-.03-.133-.019l-1.752.456c-.087.025-.142.112-.126.201z"/>
            <path fill="#E8B290" fill-rule="nonzero" d="M71.247 61.737c-.006.288-.112.565-.3.783-.015.013-.03.024-.048.033-.093.051-.231.117-.408.195l-.078.033-.09.036-.402.171-.174.069-.123.051-.114.048h-.027l-.3.117h-.021l-1.428.582-.267.111c-.441.183-.9.375-1.347.573-.534.234-1.062.477-1.554.72-2.418 1.2-4.272 2.67-7.2 4.017-1.633.713-3.303 1.34-5.001 1.881l-.807.273c-.42.141-.837.282-1.245.426-.546.192-1.077.384-1.587.582.411-1.626 1.44-3.024 2.034-4.542 1.323-3.381.651-1.5 4.089-3.357 0 0 3.231-1.662 4.134-1.95.783-.226 1.587-.368 2.4-.423.132.015 6.393-2.1 7.371-2.28.343-.06.696-.044 1.032.048l.075.021c.492.122.928.407 1.236.81.152.3.204.64.15.972z"/>
            <path fill="#F4C3B5" fill-rule="nonzero" d="M70.908 62.532l-.045.033c-.09.048-.219.108-.381.183l-.078.033-.09.036-.402.171-.174.069-.123.051-.114.048h-.027l-.3.117h-.021l-1.428.582-.3.12c-.021-.3.39-.816.819-1.236.208-.206.433-.394.672-.564.241-.163.504-.29.78-.381.262-.103.548-.13.825-.081.098.031.185.09.249.171.127.19.176.422.138.648z"/>
            <path fill="#D4A476" fill-rule="nonzero" d="M71.247 61.737c-.006.288-.112.565-.3.783-.015.013-.03.024-.048.033-.093.051-.231.117-.408.195l-.078.033-.09.036-.402.171-.174.069-.123.051-.114.048h-.027l-.3.117h-.021l-1.428.582-.267.111c-.441.183-.9.375-1.347.573-.534.234-1.062.477-1.554.72-2.418 1.2-4.272 2.67-7.2 4.017-1.633.713-3.303 1.34-5.001 1.881l-.807.273c.483-1.359 1.323-2.583 1.836-3.9 1.323-3.384.651-1.5 4.089-3.36 0 0 3.231-1.662 4.134-1.95.783-.226 1.587-.368 2.4-.423.102 0 3.666-1.179 5.844-1.848.492.122.928.407 1.236.81.153.302.205.644.15.978z"/>
            <path fill="#E8B290" fill-rule="nonzero" d="M73.872 61.464c-.005.288-.11.565-.3.783l-.045.033c-.093.051-.234.117-.411.195l-.078.033-.09.036c-.12.054-.255.108-.402.168l-.174.072-.123.051-.114.048h-.027l-.3.117h-.018l-1.431.579-.267.114c-.441.183-.9.375-1.347.573-.534.234-1.059.477-1.554.72-2.418 1.2-4.272 2.67-7.2 4.014-1.633.713-3.3 1.342-4.998 1.884-.696.234-1.386.465-2.055.699-.546.192-1.077.384-1.587.582.411-1.626 1.44-3.024 2.034-4.542 1.323-3.381.651-1.5 4.089-3.357 0 0 3.231-1.662 4.134-1.95.782-.228 1.587-.37 2.4-.423.135.015 6.393-2.1 7.371-2.283.345-.06.698-.042 1.035.051.52.116.983.41 1.308.831.152.3.204.64.15.972z"/>
            <path fill="#F4C3B5" fill-rule="nonzero" d="M73.539 62.256c-.014.013-.029.024-.045.033-.09.051-.216.111-.381.186l-.078.033-.09.036c-.12.054-.255.108-.402.168l-.174.072-.123.051-.114.048h-.027l-.3.117h-.018l-1.431.579-.3.123c-.021-.3.39-.816.822-1.236.206-.207.43-.396.669-.564.241-.163.504-.29.78-.381.262-.103.548-.13.825-.081.099.032.186.091.252.171.127.19.176.42.135.645z"/>
            <path fill="#D4A476" fill-rule="nonzero" d="M73.698 60.636c-.227-.438-.624-.763-1.098-.9-1.683.459-7.068 2.256-7.2 2.241-.813.055-1.617.197-2.4.423-.9.3-4.131 1.95-4.131 1.95-3.438 1.854-2.766-.024-4.089 3.36-.528 1.347-1.401 2.601-1.875 4.005.669-.231 1.359-.462 2.052-.696 1.698-.541 3.368-1.17 5.001-1.884 2.925-1.344 4.779-2.823 7.2-4.014 1.569-.777 3.564-1.569 4.911-2.115l.93-.387c.486-.21.762-.258.837-1.044.05-.32.002-.647-.138-.939z"/>
            <path fill="#E8B290" fill-rule="nonzero" d="M74.976 62.397c-.015.013-.03.024-.048.033-.12.066-.321.159-.582.267l-.402.168-.174.072-.123.051-.117.048h-.024c-.507.204-1.107.444-1.743.705l-.267.114c-.441.183-.9.375-1.35.573-.531.234-1.059.477-1.551.72-2.418 1.2-4.272 2.67-7.2 4.014-1.633.714-3.303 1.343-5.001 1.884-1.263.426-2.508.84-3.639 1.278.411-1.623 1.44-3.021 2.034-4.539 1.323-3.381.651-1.5 4.089-3.357 0 0 3.228-1.662 4.134-1.95.782-.228 1.587-.37 2.4-.423.132.015 6.393-2.1 7.371-2.283.978-.183 2.022.36 2.343.882.321.522.162 1.488-.15 1.743z"/>
            <path fill="#F4C3B5" fill-rule="nonzero" d="M74.946 62.406c-.014.013-.029.024-.045.033-.117.066-.3.153-.555.258l-.402.168-.174.072-.123.051-.117.048h-.024c-.507.204-1.107.444-1.743.705l-.3.123c-.021-.3.39-.816.819-1.236.207-.207.432-.396.672-.564.241-.163.504-.29.78-.381.262-.103.548-.13.825-.081.318.117.417.429.387.804z"/>
            <path fill="#D99A54" fill-rule="nonzero" d="M106.938 64.521l-70.968.18c-1.325 0-2.4-1.075-2.4-2.4V3.264c0-1.325 1.075-2.4 2.4-2.4h71.181c1.325 0 2.4 1.075 2.4 2.4l-.219 58.86c-.002 1.322-1.072 2.394-2.394 2.397z"/>
            <rect width="75.525" height="63.378" x="33.798" y="1.137" fill="#FACE92" fill-rule="nonzero" rx="2.4"/>
            <path fill="#444C6D" fill-rule="nonzero" d="M67.062 0.864H76.062V64.293H67.062z"/>
            <path fill="#DADADA" fill-rule="nonzero" d="M75.027 62.937c-.375-.483-1.5-.9-2.424-.627-.924.273-7.5 1.011-7.647 1.011-.976.136-1.939.357-2.877.66-.522.192-1.824.165-2.811.108.04-.335.03-.673-.027-1.005-.055-.59-.262-1.157-.6-1.644-.294-.395-.7-.691-1.167-.849-.54-.234-3.9-.999-6.444-.834-2.616.171-7.119.933-9.015.711-1.896-.222-4.65-1.5-4.65-1.5l-.135-.081s-6.825-2.7-11.454-2.7c-3.864 0-9.279 1.881-10.965 2.502l-.099.036-.081.03-.075.03-.09.033-.174.066 5.049 10.875.3.672 1.863-.561s3.108-.384 5.004-.111c1.896.273 4.863.576 7.938 1.2 3.324.678 8.28 2.319 10.5 2.313 1.866 0 4.665-.081 7.5-1.104 3.234-1.167 4.677-1.881 7.821-2.562 3.207-.696 8.238-1.932 11.451-3.168.162-.06.318-.123.465-.183l1.284-.69h.021l.258-.138c.027-.027.402-.222.738-.408.144-.075.282-.15.384-.216.056-.028.108-.064.153-.108.309-.189.387-1.257.006-1.758z" style="mix-blend-mode:multiply"/>
            <path fill="#E8B290" fill-rule="nonzero" d="M75.039 64.986c-.039.081-1.227.684-1.275.732l-.258.138-1.302.699c-3.171 1.293-8.55 2.619-11.913 3.348-3.144.681-4.587 1.395-7.821 2.562-2.841 1.023-5.64 1.098-7.5 1.104-2.22 0-7.176-1.635-10.5-2.313-3.075-.627-6.045-.933-7.938-1.2-1.893-.267-5.004.111-5.004.111l-1.863.561-.3-.672-5.049-10.875.174-.066.09-.033.075-.03.081-.03.072-.036c1.686-.621 7.101-2.499 10.965-2.502 4.629 0 11.454 2.7 11.454 2.7s2.574 1.617 4.428 2.073c1.854.456 6.417.261 9.033.417 2.538.156 5.784 1.332 6.3 1.632.398.276.753.609 1.056.987 0 0 3.153.3 4.044-.018.938-.303 1.9-.524 2.877-.66.135 0 6.693-.72 7.647-1.011.954-.291 2.049.144 2.424.627s.294 1.575.003 1.755z"/>
            <path fill="#F4C3B5" fill-rule="nonzero" d="M75.042 64.986c-.132.165-1.173.639-1.278.744l-.258.138-1.305.699c-.147.06-.3.123-.465.183 0-.504.867-1.518 1.296-1.881.528-.453 1.968-1.233 2.01.117z"/>
            <path fill="#DADADA" fill-rule="nonzero" d="M37.908 60.45s2.652.585 4.548.807c1.896.222 6.399-.54 9.015-.711 1.8-.114 3.681.069 5.058.063 1.106-.034 2.136.558 2.664 1.53.266.543.43 1.131.48 1.734.21 1.404-.195 2.061-1.185 2.433-1.332.498-5.79 1.419-7.557 1.974-1.971.6-2.253-1.038-4.41-.948-2.157.09-7.341.246-7.341.246l-3.6-4.575 2.328-2.553z" style="mix-blend-mode:multiply"/>
            <path fill="#E8B290" fill-rule="nonzero" d="M37.374 59.265s2.754 1.278 4.65 1.5c1.896.222 6.399-.54 9.015-.711 2.538-.165 5.904.6 6.444.834.466.158.873.454 1.167.849.338.487.545 1.054.6 1.644.21 1.404-.222 2.001-1.185 2.433-1.164.519-5.124 1.275-6.726 1.476-1.752.219-3.084-.54-5.241-.45-2.157.09-6.918.735-6.918.735l-5.079-5.151 3.273-3.159z"/>
            <path fill="#F4C3B5" fill-rule="nonzero" d="M53.247 62.037c.582-.882 4.377-.786 4.998-.276.49.377.783.954.801 1.572.063.744.093 1.998-1.698 2.322-1.024.165-2.067.185-3.096.057-1.164-.333-1.626-2.736-1.005-3.675z"/>
            <path fill="#DADADA" fill-rule="nonzero" d="M22.023 71.4l-3.867-15.3c-.088-.347-.441-.558-.789-.471l-1.689.426-1.431-.576-5.232 1.35v-.027l-3.528.9v.048L.024 59.16v19.515l18.849-4.851.984-1.2 1.689-.426c.17-.041.316-.149.406-.299.09-.15.115-.33.071-.499z" style="mix-blend-mode:multiply"/>
            <path fill="#49547D" fill-rule="nonzero" d="M0.033 79.254L18.879 74.403 14.247 56.067 0.033 59.739z"/>
            <path fill="#ACA8A2" fill-rule="nonzero" style="mix-blend-mode:multiply" d="M0.033 79.254L18.879 74.403 16.563 65.235 0.033 69.486z"/>
            <rect width="3.636" height="17.094" x="16.501" y="56.248" fill="#61D5DF" fill-rule="nonzero" rx=".648" transform="rotate(-14.17 18.32 64.795)"/>
            <path fill="#61D5DF" fill-rule="nonzero" d="M14.247 56.067L18.879 74.403 19.863 73.215 15.678 56.643z"/>
            <path fill="#ACA8A2" fill-rule="nonzero" d="M19.836 72.573c.024.094.118.153.213.132l1.752-.444c.091-.029.144-.124.12-.217-.024-.092-.116-.15-.21-.131l-1.749.441c-.095.026-.15.124-.126.219zM19.65 71.841c.024.096.12.155.216.132l1.749-.444c.088-.03.139-.123.116-.214-.022-.09-.11-.149-.203-.134l-1.752.444c-.094.025-.15.122-.126.216zM19.467 71.109c.01.046.04.085.08.11.04.025.087.033.133.022l1.749-.444c.046-.011.085-.04.11-.081.024-.04.03-.09.019-.135-.025-.095-.12-.153-.216-.132l-1.734.444c-.048.009-.09.037-.117.078-.027.04-.036.09-.024.138zM19.281 70.386c.024.096.12.155.216.132l1.749-.444c.094-.025.15-.122.126-.216-.024-.096-.12-.155-.216-.132l-1.749.444c-.094.025-.15.122-.126.216zM19.095 69.645c.025.095.12.153.216.132l1.749-.441c.095-.026.15-.124.126-.219-.01-.046-.04-.085-.08-.11-.04-.025-.087-.033-.133-.022l-1.749.444c-.046.011-.085.04-.11.081-.024.04-.03.09-.019.135zM18.912 68.913c.01.046.04.085.08.11.04.025.087.033.133.022l1.752-.441c.097-.025.155-.124.13-.22-.024-.097-.123-.156-.22-.131l-1.749.444c-.094.025-.15.122-.126.216zM18.726 68.181c.024.096.12.155.216.132l1.749-.441c.095-.026.15-.124.126-.219-.01-.046-.04-.085-.08-.11-.04-.024-.088-.03-.133-.019l-1.752.441c-.094.025-.15.122-.126.216zM18.543 67.449c.01.046.04.085.08.11.04.025.087.033.133.022l1.749-.441c.088-.03.139-.123.116-.214-.022-.09-.11-.149-.203-.134l-1.749.441c-.094.025-.15.122-.126.216zM18.357 66.717c.01.046.04.085.08.11.04.025.087.033.133.022l1.752-.441c.095-.026.15-.124.126-.219-.011-.046-.04-.085-.081-.11-.04-.024-.09-.03-.135-.019l-1.749.441c-.094.025-.15.122-.126.216zM18.171 65.985c.025.095.12.153.216.132l1.749-.441c.095-.026.15-.124.126-.219-.024-.094-.119-.152-.213-.129l-1.749.441c-.046.011-.085.04-.11.081-.024.04-.03.09-.019.135zM17.988 65.253c.01.046.04.085.08.11.04.025.087.033.133.022l1.752-.441c.091-.029.144-.124.12-.217-.024-.092-.116-.15-.21-.131l-1.755.441c-.09.029-.144.124-.12.216zM17.808 64.524c.025.095.12.152.216.129l1.749-.441c.088-.03.139-.123.116-.214-.022-.09-.11-.149-.203-.134l-1.752.441c-.095.026-.15.124-.126.219zM17.619 63.786c.01.046.04.085.08.11.04.024.088.03.133.019l1.749-.441c.046-.011.085-.04.109-.081.024-.041.03-.09.017-.135-.01-.046-.04-.085-.08-.11-.04-.025-.087-.033-.133-.022l-1.749.441c-.095.026-.15.124-.126.219zM17.433 63.06c.01.046.04.085.08.11.04.024.088.03.133.019l1.752-.441c.091-.029.144-.124.12-.217-.024-.092-.116-.15-.21-.131l-1.749.441c-.095.026-.15.124-.126.219zM17.247 62.328c.011.046.04.085.081.11.04.024.09.03.135.019l1.749-.441c.088-.03.139-.123.116-.214-.022-.09-.11-.149-.203-.134l-1.749.441c-.096.025-.154.123-.129.219zM17.064 61.596c.024.094.118.153.213.132l1.752-.444c.094-.025.15-.122.126-.216-.024-.096-.12-.155-.216-.132l-1.749.45c-.09.026-.145.118-.126.21zM16.878 60.864c.024.096.12.155.216.132l1.749-.444c.088-.03.139-.123.116-.214-.022-.09-.11-.149-.203-.134l-1.752.441c-.095.026-.15.124-.126.219zM16.695 60.132c.01.046.04.085.08.11.04.025.087.033.133.022l1.749-.444c.046-.011.085-.04.109-.081.024-.041.03-.09.017-.135-.01-.046-.04-.085-.08-.11-.04-.025-.087-.033-.133-.022l-1.749.444c-.046.011-.085.04-.109.081-.024.041-.03.09-.017.135zM16.509 59.4c.01.046.04.085.08.11.04.025.087.033.133.022l1.752-.444c.094-.025.15-.122.126-.216-.024-.096-.12-.155-.216-.132l-1.749.444c-.094.025-.15.122-.126.216zM16.323 58.668c.024.096.12.155.216.132l1.749-.444c.088-.03.139-.123.116-.214-.022-.09-.11-.149-.203-.134l-1.752.444c-.094.025-.15.122-.126.216zM16.14 57.936c.01.046.04.085.08.11.04.025.087.033.133.022l1.752-.441c.095-.026.15-.124.126-.219-.025-.095-.12-.153-.216-.132l-1.749.444c-.094.025-.15.122-.126.216zM15.954 57.204c.024.096.12.155.216.132l1.749-.441c.097-.024.156-.122.132-.219-.024-.097-.122-.156-.219-.132l-1.752.444c-.094.025-.15.122-.126.216z"/>
            <path fill="#444C6D" d="M88.542 49.5v.6l-1.989 2.838c.636.045 1.237.307 1.704.741.434.417.677.994.672 1.596h-.621c-.002-.498-.221-.97-.6-1.293-.42-.349-.954-.532-1.5-.516h-.18l-.273-.414 2.1-2.952h-4.047v-.6h4.734zm5.307 0l-2.1 3.072c.292-.085.595-.129.9-.129.736-.03 1.454.238 1.989.744.522.514.804 1.224.777 1.956v.105h-.624v-.105c.015-.558-.196-1.1-.585-1.5-.414-.406-.977-.624-1.557-.6-.532-.033-1.054.147-1.453.5-.4.353-.642.85-.674 1.381-.006.079-.006.158 0 .237v.105h-.636v-.105c-.012-.587.164-1.163.501-1.644L93.15 49.5h.699zm7.524 0v.6h-3.804l-.189 2.763h1.557c.71-.022 1.404.22 1.947.678.508.432.798 1.067.792 1.734h-.624c-.009-.491-.227-.955-.6-1.275-.427-.354-.97-.538-1.524-.516h-2.202l.282-3.975 4.365-.009z"/>
            <path fill="#444C6D" fill-rule="nonzero" d="M86.148 57.33c.024.714-.534 1.313-1.248 1.341h-1.119v-2.667h1.068c.715-.002 1.296.575 1.299 1.29v.036zm-.585 0c.028-.378-.256-.706-.633-.735h-.543v1.5h.462c.183.007.361-.058.496-.183.134-.124.214-.297.221-.48 0-.036 0-.069-.003-.102zM87.408 57.786h-.3v.9h-.6v-2.667h1.071c.508.002.92.413.921.921-.012.33-.203.627-.498.774l.57.981h-.657l-.507-.909zm-.3-.534h.462c.17-.027.295-.174.295-.346 0-.173-.125-.32-.295-.347h-.462v.693zM88.695 57.33c0-.56.337-1.064.854-1.278.518-.214 1.113-.095 1.508.301s.513.992.298 1.508c-.215.517-.72.853-1.28.852-.367 0-.718-.146-.977-.405-.259-.26-.404-.611-.403-.978zm2.172 0c-.008-.43-.362-.773-.793-.768-.43.006-.776.357-.773.788.003.43.353.778.783.778.201.006.397-.067.544-.205.147-.138.233-.329.239-.53.003-.02.003-.042 0-.063zM93.774 56.922c0 .509-.412.921-.921.921h-.405v.843h-.6v-2.682h1.014c.504.005.91.414.912.918zm-.6 0c.01-.177-.123-.33-.3-.345h-.42v.693h.405c.087 0 .17-.036.231-.099.061-.062.095-.147.093-.234l-.009-.015zM93.87 58.086l.531-.279c.082.236.312.387.561.369.3 0 .363-.117.363-.219s-.156-.228-.555-.339c-.399-.111-.789-.3-.789-.816.011-.463.395-.83.858-.819h.069c.417-.014.803.222.981.6l-.54.3c-.07-.191-.256-.313-.459-.3-.189 0-.285.096-.285.201 0 .105.063.207.483.333.42.126.858.261.858.828s-.411.825-.993.825c-.474.04-.916-.239-1.083-.684zM98.286 56.004L98.286 58.686 97.686 58.686 97.686 57.621 96.849 57.621 96.849 58.686 96.249 58.686 96.249 56.01 96.849 56.01 96.849 57.033 97.686 57.033 97.686 56.01zM99.36 56.004L99.36 58.686 98.76 58.686 98.76 56.01zM101.769 56.922c0 .509-.412.921-.921.921h-.402v.843h-.624v-2.682h1.011c.506-.008.925.394.936.9v.018zm-.6 0c.01-.177-.123-.33-.3-.345h-.414v.693h.399c.087 0 .17-.036.231-.099.061-.062.095-.147.093-.234l-.009-.015z"/>
            <rect width="26.211" height="14.13" x="79.668" y="47.064" stroke="#444C6D" stroke-width=".5" rx=".6"/>
            <g fill="#ACA8A2" fill-rule="nonzero">
                <path style="mix-blend-mode:multiply" d="M2.928 7.663H6.564V26.575H2.928z" transform="translate(4.808 49.886) rotate(-14.17 4.746 17.119)"/>
            </g>
        </g>
        <path stroke="#61D5DF" stroke-linecap="square" stroke-width="5" d="M.5 0v97.349" transform="translate(2 3)"/>
    </g>
</svg>
