<?xml version="1.0" encoding="UTF-8"?>
<svg width="52px" height="50px" viewBox="0 0 52 50" version="1.1" xmlns="http://www.w3.org/2000/svg" xmlns:xlink="http://www.w3.org/1999/xlink">
    <!-- Generator: Sketch 56.2 (81672) - https://sketch.com -->
    <title>Combined Shape</title>
    <desc>Created with Sketch.</desc>
    <g id="Page-1" stroke="none" stroke-width="1" fill="none" fill-rule="evenodd">
        <g id="365-Landing-Page-Slide-1" transform="translate(-1024.000000, -3052.000000)" fill="#49547d" fill-rule="nonzero">
            <g id="Group-34" transform="translate(970.000000, 2997.000000)">
                <path d="M65.3590149,95.3084232 C65.9906521,95.4601769 66.5363022,95.9162829 66.7740299,96.5727091 C66.8701008,97.0918803 66.7280185,97.626756 66.3869705,98.0298127 C66.0459226,98.4328693 65.5419416,98.661523 65.0140299,98.6527091 C64.6301996,98.8086156 64.1946484,98.769112 63.8451316,98.5466922 C63.4956148,98.3242724 63.2753603,97.9464452 63.2540299,97.5327091 C63.0838277,96.8515681 63.3004502,96.1477958 63.7888508,95.6802468 L61.2657941,96.2777206 L62.7955034,102.063641 C62.7955034,102.545801 63.0370365,102.545801 63.5201026,102.545801 L100.233126,93.3044005 C100.38187,93.0861778 100.38187,92.7993832 100.233126,92.5811605 L97.8177958,83.0986803 C98.6914849,82.8974427 99.5319124,82.5727262 100.313637,82.1343603 L102.970501,92.0186405 C103.199801,93.8289147 102.071418,95.5353793 100.313637,96.0366406 L63.9226577,104.876241 C63.1186736,105.11881 62.2488023,105.001343 61.5382994,104.554258 C60.8277965,104.107172 60.3465394,103.374439 60.2191509,102.545801 L54.1003136,78.9199602 C53.8842344,78.0872684 54.0205407,77.202533 54.4772862,76.4731111 C54.9340316,75.7436891 55.6710641,75.2337034 56.5156441,75.0626801 L77.1264645,70 C77.2036158,70.9499752 77.3652748,71.8912176 77.6095306,72.8126001 L57.0792212,77.7145602 C56.9033747,77.9236942 56.9033747,78.2286661 57.0792212,78.4378002 L58.2063755,82.1343603 L80.0248611,76.9913202 C81.9432231,79.9271103 84.770515,82.1564815 88.0759628,83.3397603 L60.0581289,90.1703604 L60.702217,93.8669205 L96.9321746,85.0273203 L97.5762628,87.6792004 L65.3590149,95.3084232 Z M69.5026105,95.2735589 C70.5426105,95.1935589 71.4226105,95.5935589 71.5826105,96.6335589 C71.7043887,97.0686768 71.6457633,97.5345059 71.4199698,97.9258815 C71.1941762,98.317257 70.8202509,98.6011823 70.3826105,98.7135589 C69.4607087,98.8626323 68.5828803,98.2657091 68.3826105,97.3535589 C68.2347503,96.4854182 68.6964417,95.6279915 69.5026105,95.2735589 Z M74.4628708,94.3324002 C75.3788059,94.1544107 76.2901037,94.6606873 76.6228708,95.5324002 C76.7414868,95.9903496 76.6615315,96.4770859 76.4026487,96.8730242 C76.143766,97.2689625 75.7299503,97.5374055 75.2628708,97.6124002 C74.8692815,97.7637854 74.4277328,97.7240264 74.0675181,97.5047653 C73.7073034,97.2855042 73.4691786,96.9115489 73.4228708,96.4924002 C73.2700796,96.0682332 73.2941863,95.6004545 73.4897707,95.1942409 C73.685355,94.7880272 74.0360019,94.4774716 74.4628708,94.3324002 Z M78.6455116,92.2765745 C79.482706,92.0718586 80.3316194,92.5670581 80.5655116,93.3965745 C80.8391251,94.0009135 80.7314855,94.7096732 80.290785,95.2055291 C79.8500845,95.701385 79.1588585,95.8914722 78.5265812,95.6906851 C77.8943039,95.4898981 77.4393896,94.9358408 77.3655116,94.2765745 C77.217087,93.8391235 77.2756498,93.3579144 77.524663,92.9688313 C77.7736762,92.5797482 78.1861138,92.3250191 78.6455116,92.2765745 Z M92.8451242,80.9990732 C85.8145482,80.999609 80.0906672,75.346381 80.00387,68.3163257 C79.8749574,63.017079 82.9764771,58.1703171 87.8422427,56.0672578 C92.7080082,53.9641985 98.3633388,55.0261139 102.134781,58.7510029 C105.906223,62.4758919 107.038304,68.1176074 104.995853,73.009132 C102.953403,77.9006565 98.145552,81.0621495 92.8451242,80.9990732 Z M92.8451242,57.2189217 L92.8451242,56.901853 C89.8457929,56.9434256 86.9871211,58.1804621 84.9036019,60.3383973 C82.8200828,62.4963324 81.6840837,65.3966427 81.747744,68.3955929 C81.8770992,74.3876755 86.7723915,79.1773243 92.7658572,79.1759283 C93.6596633,79.3038411 94.5671291,79.3038411 95.4609352,79.1759283 L91.4183181,72.8345545 L93.0036582,72.8345545 L93.0036582,68.0785242 L98.5523482,68.0785242 L98.5523482,72.8345545 L100.137688,72.8345545 L96.0158042,79.0966611 C100.658696,77.7130485 103.867444,73.4774923 103.942504,68.6333944 C103.984848,65.6480473 102.839381,62.768182 100.758155,60.627488 C98.6769297,58.486794 95.8304731,57.2606728 92.8451242,57.2189217 Z" id="Combined-Shape"></path>
            </g>
        </g>
    </g>
</svg>