<?xml version="1.0" encoding="UTF-8"?>
<svg width="48px" height="48px" viewBox="0 0 48 48" version="1.1" xmlns="http://www.w3.org/2000/svg" xmlns:xlink="http://www.w3.org/1999/xlink">
    <!-- Generator: Sketch 56.2 (81672) - https://sketch.com -->
    <title>Combined Shape</title>
    <desc>Created with Sketch.</desc>
    <g id="Page-1" stroke="none" stroke-width="1" fill="none" fill-rule="evenodd">
        <g id="365-Landing-Page-Slide-1" transform="translate(-1206.000000, -3053.000000)" fill="#49547d" fill-rule="nonzero">
            <g id="Group-33" transform="translate(1150.000000, 2997.000000)">
                <g id="Group-41">
                    <path d="M93.8616352,89.0466926 C97.3847575,89.017916 100.381156,86.470781 100.974843,83 L104,83 L104,104 L82.9874214,104 L82.9874214,96.8910506 L81.4339623,96.8910506 C80.5526407,96.9353945 79.6907889,96.6219215 79.0441442,96.0218252 C78.3974996,95.4217288 78.0209447,94.5859413 78,93.7042802 C78,91.8088905 79.5374373,90.2723735 81.4339623,90.2723735 L82.9874214,90.2723735 L82.9874214,83 L86.1761006,83 C87.1160894,86.4936736 90.2428914,88.953725 93.8616352,89.0466926 Z M69.5882353,81.2292994 L69.5882353,82.7197452 L77,82.7197452 L77,85.866242 C73.5033943,86.6936737 71.0322822,89.8309225 71.0322822,93.4426752 C71.0322822,97.0544278 73.5033943,100.191677 77,101.019108 L77,104 L56,104 L56,82.7197452 L63.1647059,82.7197452 L63.1647059,81.2292994 C63.1647059,79.4458066 64.6026619,78 66.3764706,78 C68.1502793,78 69.5882353,79.4458066 69.5882353,81.2292994 Z M81.9989614,66.6627907 C82.0017939,67.5056894 81.644017,68.3111754 81.0125586,68.8835421 C80.3811003,69.4559089 79.5337588,69.7427667 78.6764104,69.6744186 L77.1812625,69.6744186 L77.1812625,77 L74.024839,77 C73.2810631,73.5812385 70.1994026,71.1373914 66.6321631,71.1373914 C63.0649236,71.1373914 59.9832631,73.5812385 59.2394872,77 L56,77 L56,56 L77.1812625,56 L77.1812625,63.244186 L78.6764104,63.244186 C79.5797245,63.2655121 80.4373628,63.6377324 81.0605188,64.2789036 C81.6836748,64.9200748 82.021262,65.7776335 81.9989614,66.6627907 Z M83,56 L104,56 L104,77.0282132 L96.7276265,77.0282132 L96.7276265,78.7398119 C96.7276265,80.5403641 95.264277,82 93.459144,82 C91.6540109,82 90.1906615,80.5403641 90.1906615,78.7398119 L90.1906615,77.0282132 L83,77.0282132 L83,73.9310345 C86.4312088,73.200342 88.8834851,70.1767485 88.8832685,66.677116 C89.0774424,63.0449961 86.5739112,59.8194744 83,59.0971787 L83,56 Z" id="Combined-Shape"></path>
                </g>
            </g>
        </g>
    </g>
</svg>