<?xml version="1.0" encoding="UTF-8"?>
<svg width="49px" height="49px" viewBox="0 0 49 49" version="1.1" xmlns="http://www.w3.org/2000/svg" xmlns:xlink="http://www.w3.org/1999/xlink">
    <!-- Generator: Sketch 56.2 (81672) - https://sketch.com -->
    <title>Group 25</title>
    <desc>Created with Sketch.</desc>
    <g id="Page-1" stroke="none" stroke-width="1" fill="none" fill-rule="evenodd">
        <g id="365-Landing-Page-Slide-1" transform="translate(-486.000000, -3053.000000)" fill="#49547d" fill-rule="nonzero">
            <g id="Group-25" transform="translate(486.000000, 3053.000000)">
                <path d="M44.3217514,0.000843313535 C45.6015434,0.0239070016 46.818167,0.55720823 47.6975435,1.48060596 C48.57692,2.40400369 49.0450856,3.63983135 48.9965727,4.90968415 L48.9965727,37.8435436 C48.9965727,39.0507651 48.5135199,40.2085419 47.6536805,41.0621764 C46.793841,41.9158109 45.6276485,42.3953778 44.4116518,42.3953778 L29.1285822,42.3953778 L29.1285822,44.9836757 L33.264001,44.9836757 C35.7126949,44.8991752 37.8544168,46.6077822 38.298424,49 L10.6090978,49 C11.1944868,46.6200424 13.3557917,44.955269 15.8233215,44.9836757 L19.9587404,44.9836757 L19.9587404,42.3953778 L4.94537198,42.3953778 C3.67497105,42.468458 2.42946133,42.0242247 1.49635429,41.1652239 C0.563247254,40.3062232 0.0231903455,39.1066975 0.000849443467,37.8435436 L0.000849443467,4.90968415 C-0.0238070237,3.60042785 0.489210699,2.33757196 1.42188708,1.41162616 C2.35456345,0.485680355 3.62659887,-0.0236352224 4.94537198,0.000843313535 L44.3217514,0.000843313535 Z M44.9510543,37.8435436 L44.9510543,4.90968415 C44.9510543,4.10641928 44.8611539,4.10641928 44.3217514,4.10641928 L4.94537198,4.10641928 C4.70669663,4.08152675 4.46790375,4.15240832 4.28216271,4.30328159 C4.09642166,4.45415485 3.97915294,4.6724941 3.95646747,4.90968415 L3.95646747,37.8435436 C3.95646747,38.3790535 4.94537198,38.3790535 4.94537198,38.3790535 L44.3217514,38.3790535 C44.9510543,38.3790535 44.9510543,37.8435436 44.9510543,37.8435436 Z M28,19 L42,19 L42,31 L28,31 L28,19 Z M7,19 L25,19 L25,21 L7,21 L7,19 Z M7,24 L25,24 L25,26 L7,26 L7,24 Z M7,29 L25,29 L25,31 L7,31 L7,29 Z M7,33 L42,33 L42,36 L7,36 L7,33 Z" id="Combined-Shape"></path>
            </g>
        </g>
    </g>
</svg>