<?xml version="1.0" encoding="UTF-8"?>
<svg width="55px" height="50px" viewBox="0 0 55 50" version="1.1" xmlns="http://www.w3.org/2000/svg" xmlns:xlink="http://www.w3.org/1999/xlink">
    <!-- Generator: Sketch 56.2 (81672) - https://sketch.com -->
    <title>Combined Shape</title>
    <desc>Created with Sketch.</desc>
    <g id="Page-1" stroke="none" stroke-width="1" fill="none" fill-rule="evenodd">
        <g id="365-Landing-Page-Slide-1" transform="translate(-1383.000000, -3052.000000)" fill="#49547d" fill-rule="nonzero">
            <g id="Group-42" transform="translate(1330.000000, 2997.000000)">
                <path d="M93.9947644,76.753046 C90.0103599,76.7306892 86.1861703,78.3386088 83.3909988,81.2115077 C80.5958273,84.0844067 79.0669953,87.978364 79.1518325,92.0087264 C79.1539749,93.8514033 79.4728627,95.6796637 80.0942408,97.4117799 L77.3455497,98.7625432 C76.1616917,99.0791523 74.9168423,99.0791523 73.7329843,98.7625432 L55.6701571,90.8168764 C54.2001455,89.9276287 53.2156191,88.4041926 53,86.6851296 L53,67.5360725 C53.1348819,65.8301497 54.1088269,64.3072787 55.591623,63.4837824 L62.5026178,60.3849723 L84.5706806,70.7143392 L84.5706806,77.468156 L88.2617801,75.6406527 L88.2617801,69.1252058 L66.3507853,58.6369256 L73.7329843,55.2997455 C74.9047774,54.9000848 76.1737567,54.9000848 77.3455497,55.2997455 L95.565445,63.2454123 C96.9687337,64.1265984 97.872947,65.6316516 98,67.2977024 L98,77.229786 C96.6918705,76.8910803 95.3448718,76.7307481 93.9947644,76.753046 Z M66.1151832,78.7394627 C65.8010471,78.9778327 66.3507853,79.7723994 66.3507853,79.7723994 L67.5287958,80.1696828 L67.5287958,87.3207829 C67.5217728,87.7476824 67.8206244,88.1172366 68.2356021,88.1948063 L69.6492147,88.751003 C70.1204188,89.1482863 70.1204188,88.751003 70.1204188,88.751003 L70.1204188,81.5204461 L71.0628272,82.1560995 C71.7696335,82.3150128 71.7696335,81.5204461 71.7696335,81.5204461 L69.4136126,76.4352193 C69.1780105,75.9584793 68.3141361,75.9584793 68.3141361,75.9584793 L66.1151832,78.7394627 Z M56.5340314,74.2104326 C56.2198953,74.607716 56.6125654,75.2433693 57.0052356,74.607716 L58.104712,75.1639126 L58.104712,83.1095795 C58.2327471,83.4751808 58.4826714,83.7842325 58.8115183,83.9836029 L60.460733,84.6192562 C61.0104712,84.6192562 61.0104712,84.6192562 61.0104712,84.6192562 L61.0104712,77.229786 L61.9528796,77.229786 C62.5026178,77.944896 62.973822,77.229786 62.5026178,77.229786 L60.0680628,71.9856459 C59.7539267,71.4294492 58.9685864,71.4294492 58.9685864,71.4294492 L56.5340314,74.2104326 Z M72.7120419,93.2005764 L72.6335079,92.1676397 C72.6335079,91.6908997 72.6335079,91.6908997 72.6335079,91.6908997 L55.6701571,84.4603429 L55.6701571,85.3343662 C55.6701571,85.8111062 55.6701571,85.8111062 55.6701571,85.8111062 L72.7120419,93.2005764 Z M94.5000287,78.0002236 C99.9600978,78.0002236 104.882533,81.2895183 106.972011,86.3339644 C109.061489,91.3784105 107.906523,97.1848191 104.045671,101.045671 C100.184819,104.906523 94.3784105,106.061489 89.3339644,103.972011 C84.2895183,101.882533 81.0002236,96.9600978 81.0002236,91.5000287 C80.9795379,87.9133478 82.3950937,84.4675128 84.9313032,81.9313032 C87.4675128,79.3950937 90.9133478,77.9795379 94.5000287,78.0002236 Z M94.5000287,102.970767 C100.782872,102.846318 105.846318,97.7828723 105.970767,91.5000287 C106.002318,86.814935 103.200181,82.5750394 98.877682,80.7675267 C94.5551832,78.9600139 89.5689809,79.9431076 86.2560442,83.2560442 C82.9431076,86.5689809 81.9600139,91.5551832 83.7675267,95.877682 C85.5750394,100.200181 89.814935,103.002318 94.5000287,102.970767 Z M99,83 L98.4736842,83.3902439 L90.5789474,98.6097561 C90.5789474,99 90.5789474,99 90.5789474,99 L89,99 C89,99 89,98.6097561 89,98.6097561 L97.0451128,83 L99,83 Z M92.992988,87.9245283 C93.0814452,90.0102434 91.5456473,91.8011962 89.498144,92 C87.468683,91.7659711 85.9517055,89.9969655 86.0033,87.9245283 C85.9186264,85.867827 87.4735621,84.121715 89.498144,84 C90.4783363,84.0387233 91.4017389,84.4769581 92.0594945,85.2155834 C92.71725,85.9542088 93.0537874,86.9308212 92.992988,87.9245283 Z M87.936618,87.9245283 C87.936618,88.7998475 88.635737,89.509434 89.498144,89.509434 C90.360551,89.509434 91.05967,88.7998475 91.05967,87.9245283 C91.05967,87.0492091 90.360551,86.3396226 89.498144,86.3396226 C88.635737,86.3396226 87.936618,87.0492091 87.936618,87.9245283 Z M97.6104062,91 C98.5678049,91.0599026 99.4627015,91.5114059 100.097297,92.2547139 C100.731892,92.998022 101.05393,93.9719264 100.99223,94.961165 C101.121786,97.036189 99.6159511,98.8345736 97.6104062,99 C96.6135572,98.9596154 95.6731633,98.5111968 94.9965012,97.7535825 C94.3198391,96.9959681 93.962457,95.9913515 94.0031271,94.961165 C93.9625157,93.938506 94.3221737,92.9420456 95.0009143,92.1967183 C95.6796548,91.4513911 96.6202609,91.0200272 97.6104062,91 Z M97.6104062,96.8252427 C98.0496168,96.7858671 98.4554218,96.5668316 98.7376535,96.2168049 C99.0198852,95.8667781 99.1551667,95.4147523 99.1134391,94.961165 C99.1338522,94.5284521 98.9868604,94.1051229 98.704889,93.7845609 C98.4229176,93.4639989 98.0291347,93.272543 97.6104062,93.2524272 C96.6972938,93.2524272 95.95707,94.0174552 95.95707,94.961165 C95.9366993,95.4350676 96.0995421,95.8978845 96.4096927,96.2475682 C96.7198433,96.597252 97.1518311,96.8050854 97.6104062,96.8252427 Z" id="Combined-Shape"></path>
            </g>
        </g>
    </g>
</svg>