<?xml version="1.0" encoding="UTF-8"?>
<svg width="61px" height="50px" viewBox="0 0 61 50" version="1.1" xmlns="http://www.w3.org/2000/svg" xmlns:xlink="http://www.w3.org/1999/xlink">
    <!-- Generator: Sketch 56.2 (81672) - https://sketch.com -->
    <title>Combined Shape</title>
    <desc>Created with Sketch.</desc>
    <g id="Page-1" stroke="none" stroke-width="1" fill="none" fill-rule="evenodd">
        <g id="365-Landing-Page-Slide-1" transform="translate(-840.000000, -3052.000000)" fill="#49547d" fill-rule="nonzero">
            <g id="Group-35" transform="translate(790.000000, 2997.000000)">
                <g id="Group-39">
                    <path d="M69,70.22 C70.5111423,69.9496872 72.0380723,70.6053546 72.8826971,71.8872397 C73.7273219,73.1691247 73.7273219,74.8308753 72.8826971,76.1127603 C72.0380723,77.3946454 70.5111423,78.0503128 69,77.78 C67.4888577,78.0503128 65.9619277,77.3946454 65.1173029,76.1127603 C64.2726781,74.8308753 64.2726781,73.1691247 65.1173029,71.8872397 C65.9619277,70.6053546 67.4888577,69.9496872 69,70.22 Z M87.2075213,70.8421211 C88.4430368,71.2291743 89.1933652,72.4688818 88.9564498,73.7317356 L88.9564498,76.9681039 C88.9773032,78.2101139 88.0899257,79.2852854 86.8577357,79.5109647 L83.1266883,80.0888876 C82.8934978,80.782395 82.3105217,81.2447334 82.3105217,81.8226563 L84.525831,85.0590245 C85.2645337,86.0135397 85.2645337,87.3408775 84.525831,88.2953928 L82.1939264,90.4914998 C81.7080179,90.9876366 81.0235777,91.2420769 80.3284028,91.1850073 C79.8620218,91.1850073 79.0458552,91.1850073 79.0458552,91.1850073 L75.7811888,89.2200694 L74.1488555,89.2200694 L73.4492842,92.918776 C73.2216316,94.1402853 72.137059,95.0199711 70.8841891,94.9996552 L67.5029274,94.9996552 C66.2762572,95.0117624 65.229611,94.1224133 65.0544276,92.918776 L64.238261,89.2200694 L62.722523,89.2200694 L59.4578565,91.1850073 C58.9653287,91.3439398 58.4346463,91.3439398 57.9421185,91.1850073 C57.3147919,91.2418768 56.7008829,90.9810535 56.3097853,90.4914998 L53.7446902,88.2953928 C53.0059876,87.3408775 53.0059876,86.0135397 53.7446902,85.0590245 L55.8434044,81.8226563 C55.8768083,81.2452077 55.8768083,80.6663361 55.8434044,80.0888876 L52.112357,79.5109647 C50.852476,79.3328335 49.940292,78.2276058 50.0136429,76.9681039 L50.0136429,73.7317356 C49.8753193,72.4294551 50.8039479,71.2531594 52.112357,71.0732903 L55.8434044,70.2641982 C55.8893894,69.8029836 55.8893894,69.3383979 55.8434044,68.8771833 L53.7446902,65.5252304 C52.9807129,64.6228161 52.9807129,63.3068612 53.7446902,62.4044468 L56.3097853,60.2083397 C56.6460024,59.6309808 57.2696575,59.2776955 57.9421185,59.2836631 C58.429723,59.0964793 58.970252,59.0964793 59.4578565,59.2836631 L62.722523,61.3641856 L64.238261,60.5550935 L65.0544276,56.8563869 C65.3287992,55.7448349 66.3490493,54.9742394 67.5029274,55.0070336 L70.8841891,55.0070336 C72.0808627,54.9169977 73.1669841,55.7000572 73.4492842,56.8563869 L74.1488555,60.5550935 L75.7811888,61.3641856 L79.0458552,59.2836631 C79.4481971,59.0779787 79.9260609,59.0779787 80.3284028,59.2836631 C81.2187537,58.8977464 82.258867,59.1320868 82.8934978,59.861586 L85.2254024,62.057693 C85.9893798,62.9601074 85.9893798,64.2760623 85.2254024,65.1784767 L83.0100931,68.5304295 L83.8262597,69.9174445 L87.2075213,70.8421211 Z M69.0186654,83.9031787 L69.0186654,83.7875941 C73.8219466,83.7253424 77.7005117,79.8803968 77.7633077,75.1187506 C77.7633077,70.3310805 73.848198,66.4499071 69.0186654,66.4499071 C64.1891328,66.4499071 60.2740231,70.3310805 60.2740231,75.1187506 C60.2736034,79.9254738 64.1703328,83.8399324 69.0186654,83.9031787 Z M97.7216824,89.42 C98.776009,89.1912999 99.863407,89.6271272 100.467932,90.5206921 C101.072456,91.4142569 101.072456,92.5857431 100.467932,93.4793079 C99.863407,94.3728728 98.776009,94.8087001 97.7216824,94.58 C97.0327984,94.6128417 96.360556,94.3619128 95.8616819,93.8857148 C95.3628079,93.4095168 95.0809,92.749666 95.0816824,92.06 C95.0469733,91.3497557 95.3139517,90.6579051 95.8167696,90.1550872 C96.3195875,89.6522692 97.0114381,89.3852909 97.7216824,89.42 Z M110.242114,89.5190857 C110.963673,90.046071 111.204984,91.0215301 110.81371,91.8296683 L110.81371,94.0247218 C110.7886,94.8463719 110.229582,95.55254 109.44188,95.7576588 L106.926857,95.7576588 C106.926857,96.2197753 106.926857,96.9129501 106.926857,96.9129501 L108.527326,98.5303579 C109.026702,99.1316789 109.026702,100.008561 108.527326,100.609882 L107.041177,102.22729 C106.63359,102.368127 106.191252,102.368127 105.783665,102.22729 C105.500702,102.392388 105.152076,102.392388 104.869112,102.22729 L102.697047,100.95647 L101.668174,100.95647 L101.096578,103.498111 C101.0365,104.345973 100.337238,105.00216 99.4961097,105 L97.2097258,105 C96.362787,104.961471 95.6530425,104.339849 95.4949379,103.498111 L95.4949379,100.95647 L94.4660652,100.95647 L92.2940005,102.22729 C91.9667349,102.375563 91.5923932,102.375563 91.2651277,102.22729 C90.8970578,102.369515 90.4900056,102.369515 90.1219358,102.22729 L88.5214671,100.609882 C88.0220911,100.008561 88.0220911,99.1316789 88.5214671,98.5303579 L89.8932974,96.3353044 L89.8932974,95.1800131 L87.3782751,95.1800131 C86.5669691,95.0128304 85.9897501,94.2836701 86.0064448,93.4470761 L86.0064448,91.2520226 C85.9312346,90.3727375 86.521943,89.5767904 87.3782751,89.4035565 L89.8932974,89.4035565 L89.8932974,88.4793235 L88.5214671,86.1687408 C88.0044679,85.530326 88.0044679,84.6121022 88.5214671,83.9736873 L90.1219358,82.4718086 C90.3855423,82.1006669 90.81316,81.8845951 91.2651277,81.894163 C91.6010209,81.7946774 91.9581073,81.7946774 92.2940005,81.894163 L94.4660652,83.3960417 L95.4949379,82.818396 L95.3806187,80.2767551 C95.5919391,79.5028877 96.3015366,78.9770086 97.0954066,79.0059347 L99.3817905,79.0059347 C100.163653,78.9359488 100.864563,79.4924923 100.982259,80.2767551 L101.553855,82.818396 L102.582728,83.0494543 L104.754793,81.5475756 C105.048839,81.4315768 105.3753,81.4315768 105.669346,81.5475756 C106.153395,81.5380019 106.615716,81.7503722 106.926857,82.1252212 L109.098922,84.0892165 C109.615921,84.7276313 109.615921,85.6458552 109.098922,86.28427 L107.727092,88.5948526 C107.727092,88.8259109 107.727092,89.5190857 107.727092,89.5190857 L110.242114,89.5190857 Z M98.1242794,98.4148288 C99.6705655,98.4148288 101.15352,97.7940678 102.246909,96.6891061 C103.340299,95.5841445 103.954558,94.0854948 103.954558,92.5228431 C103.954558,89.2687892 101.344254,86.6308574 98.1242794,86.6308574 C94.9043052,86.6308574 92.2940005,89.2687892 92.2940005,92.5228431 C92.2940005,95.7768969 94.9043052,98.4148288 98.1242794,98.4148288 Z" id="Combined-Shape"></path>
                </g>
            </g>
        </g>
    </g>
</svg>