<?xml version="1.0" encoding="UTF-8"?>
<svg width="52px" height="50px" viewBox="0 0 52 50" version="1.1" xmlns="http://www.w3.org/2000/svg" xmlns:xlink="http://www.w3.org/1999/xlink">
    <!-- Generator: Sketch 56.2 (81672) - https://sketch.com -->
    <title>Combined Shape</title>
    <desc>Created with Sketch.</desc>
    <g id="Page-1" stroke="none" stroke-width="1" fill="none" fill-rule="evenodd">
        <g id="365-Landing-Page-Slide-1" transform="translate(-664.000000, -3052.000000)" fill="#49547d" fill-rule="nonzero">
            <g id="Group-37" transform="translate(610.000000, 2997.000000)">
                <path d="M101.832392,55 C102.95565,55 104.031461,55.4438361 104.815859,56.2318113 C105.600257,57.0197865 106.026778,58.0847897 105.998696,59.1853049 L105.998696,100.017546 C105.999056,101.091338 105.556813,102.11974 104.772335,102.869354 C103.987856,103.618968 102.927672,104.026223 101.832392,103.998689 L95.2704621,103.998689 C94.1653922,104.026104 93.0945048,103.621987 92.2935611,102.875306 C91.4926173,102.128625 91.0272816,101.100596 91,100.017546 L91,59.1853049 C91,56.8738249 92.911951,55 95.2704621,55 L101.832392,55 Z M64.7746479,71 C66.6760563,71 69,72.3273273 69,73.8588589 L69,102.243243 C69,103.774775 67.0985915,105 64.7746479,105 L58.4366197,105 C56.0070423,105 54,103.774775 54,102.243243 L54,73.8588589 C54,72.3273273 56.0070423,71 58.4366197,71 L64.7746479,71 Z M82.9859155,82 C85.3098592,82 86.8943662,82.8214286 87,83.9508929 L87,103.151786 C87,104.178571 85.2042254,105 82.8802817,105 L76.3309859,105 C73.9014085,105 72,104.178571 72,103.151786 L72,83.9508929 C72,82.8214286 73.9014085,82 76.3309859,82 L82.9859155,82 Z" id="Combined-Shape"></path>
            </g>
        </g>
    </g>
</svg>