<svg xmlns="http://www.w3.org/2000/svg" width="50" height="46" viewBox="0 0 50 46">
    <path fill="#49547D" d="M37.835 19.808c-3.664 0-7.177 1.458-9.764 4.052-2.587 2.594-4.034 6.111-4.024 9.775.04 1.705.37 3.392.974 4.987l-2.677 1.055c-1.049.284-2.154.284-3.203 0L2.434 32.459C1.029 31.849.088 30.5 0 28.972V11.496C-.02 9.864.938 8.377 2.434 7.725L8.88 4.886l20.276 9.367v6.082l3.447-1.5v-5.96l-20.276-9.53L19.1.305c1.057-.406 2.228-.406 3.285 0l16.626 7.42c1.512.64 2.488 2.129 2.473 3.77v8.84c-1.2-.272-2.42-.448-3.65-.527zM18.208 34.689l-.081-.649c0-.121-.243-.405-.243-.405l-15.41-6.731H2.15v.973c0 .324.324.324.324.324l15.49 6.488h.244zm19.627-13.502c6.773.132 12.188 5.673 12.165 12.448-.018 5.036-3.078 9.563-7.746 11.455-4.668 1.893-10.017.776-13.537-2.826-3.52-3.603-4.514-8.975-2.514-13.598 2-4.623 6.596-7.578 11.632-7.48zm0 23.071c5.842-.044 10.561-4.78 10.583-10.623.017-4.324-2.58-8.23-6.574-9.889-3.994-1.658-8.594-.741-11.646 2.322-3.052 3.064-3.952 7.667-2.278 11.654 1.674 3.988 5.59 6.57 9.915 6.536zm5.028-15.57l1.5 1.216c.179.169.28.404.28.65 0 .245-.101.48-.28.648L37.47 37.69l-1.095 1.419c-.409.203-.89.203-1.298 0l-1.338-1.42-3.528-3.243c-.366-.402-.366-1.017 0-1.42l1.379-1.337c.409-.203.889-.203 1.297 0l2.717 2.919 6.083-5.92c.125-.205.348-.33.588-.33s.463.125.588.33z"/>
</svg>
