<svg xmlns="http://www.w3.org/2000/svg" width="41" height="41" viewBox="0 0 41 41">
    <path fill="#49547D" d="M10 11.431h5.666c-.22 2.631-.502 5.214-.502 8.078H8.433c.189-2.747.715-5.46 1.566-8.078zm7.049 17.354c-.348-2.65-.515-5.32-.502-7.991h7.98c-.058 2.672-.259 5.34-.6 7.991h-6.878zm13.475-18.774h-5.447c-.28-2.603-.98-5.145-2.068-7.526 2.998.93 5.764 3.696 7.515 7.526zm-14.626 0l-5.397.037c1.8-3.892 4.516-6.633 7.613-7.563-1.254 2.327-2.008 4.89-2.216 7.526zm7.894 0h-6.645c.967-5.03 2.19-7.98 3.414-7.98 1.016 0 2.448 2.95 3.231 7.98zm.135 1.42c.34 2.68.54 5.376.6 8.078h-7.98c-.012-2.701.156-5.4.502-8.078h6.878zm7.882-1.42c-.999-2.498-2.512-4.759-4.443-6.633 3.224 1.487 6.016 3.77 8.114 6.633H31.81zm-6.352 18.774c.355-2.447.355-5.226.55-7.991h6.413c-.098 2.71-.546 5.396-1.334 7.991h-5.63zm8.297-9.276c.044-2.748-.395-5.482-1.297-8.078h4.014c1.23 2.52 1.906 5.274 1.983 8.078h-4.7zm-2.68-8.078c.791 2.624 1.243 5.339 1.346 8.078h-6.4c-.196-2.864-.196-5.447-.563-8.078h5.617zm-5.997 18.688h5.41c-1.75 3.978-4.516 6.732-7.478 7.65 1.106-2.419 1.805-5.003 2.068-7.65zm2.313 6.634c1.963-1.848 3.482-4.116 4.443-6.634h3.672c-1.976 2.977-4.804 5.29-8.115 6.634zm-10.243-6.634l6.609-.024c-.747 5.067-2.216 8.065-3.195 8.065-1.224 0-2.447-2.974-3.414-8.04zm15.31-1.334c.927-2.56 1.367-5.27 1.297-7.991h4.75c-.094 2.779-.787 5.505-2.033 7.991h-4.014zM10.55 30.12h5.348c.203 2.682.975 5.29 2.265 7.65-3.097-.918-5.814-3.684-7.613-7.65zm-4.932 0h3.55c.973 2.53 2.519 4.8 4.515 6.634-3.298-1.343-6.11-3.656-8.065-6.634zm2.815-9.325h6.731c0 2.765.282 5.544.502 7.991H9.999c-.852-2.588-1.378-5.273-1.566-7.991zm5.25-17.38c-1.96 1.851-3.5 4.1-4.516 6.597H5.618c2.082-2.85 4.858-5.121 8.065-6.596zm-5.25 8.017c-.85 2.61-1.3 5.333-1.334 8.078H2.57c.106-2.832.878-5.6 2.251-8.078h3.61zm-1.334 9.363c.008 2.718.459 5.417 1.334 7.991h-3.61c-1.543-2.374-2.328-5.161-2.252-7.991h4.528zM20.56 0C31.833.027 40.966 9.155 41 20.426c.03 8.304-4.953 15.805-12.618 18.998-7.666 3.192-16.5 1.445-22.373-4.424-5.873-5.87-7.625-14.703-4.437-22.37C4.759 4.962 12.258-.025 20.562 0zm0 39.898c10.672-.12 19.263-8.8 19.276-19.472-.03-7.85-4.788-14.908-12.054-17.88-7.266-2.972-15.607-1.272-21.13 4.307C1.131 12.433-.485 20.79 2.56 28.025 5.605 35.261 12.71 39.947 20.56 39.898z"/>
</svg>
